<?xml version="1.0" encoding="UTF-8"?>
<svg width="5000px" height="5000px" viewBox="0 0 5000 5000" xmlns="http://www.w3.org/2000/svg" xmlns:xlink="http://www.w3.org/1999/xlink" version="1.1">
 <!-- Generated by Pixelmator Pro 1.1.5 -->
 <path id="path" d="M0 5000 L5000 5000 5000 0 0 0 Z" fill="#ffffff" fill-opacity="1" stroke="none"/>
 <g id="new-group">
  <g id="new-group-1">
   <g id="new-group-2">
    <defs>
     <linearGradient id="linear-gradient" gradientUnits="userSpaceOnUse" x1="3353.087" y1="951.484" x2="3761.006" y2="928.067">
      <stop offset="0" stop-color="#5440ce" stop-opacity="1"/>
      <stop offset="1" stop-color="#653acb" stop-opacity="1"/>
     </linearGradient>
    </defs>
    <path id="path-1" d="M3424.905 391.429 C3366.915 391.429 3319.905 438.439 3319.905 496.429 L3319.905 1555 C3319.905 1612.99 3366.915 1660 3424.905 1660 L3673 1660 C3730.989 1660 3778 1612.99 3778 1555 L3778 496.429 C3778 438.439 3730.989 391.429 3673 391.429 Z" fill-opacity="1" fill="url(#linear-gradient)" stroke="none"/>
    <defs>
     <linearGradient id="linear-gradient-1" gradientUnits="userSpaceOnUse" x1="1244.789" y1="565.126" x2="1609.19" y2="925.612">
      <stop offset="0" stop-color="#468ce6" stop-opacity="1"/>
      <stop offset="1" stop-color="#3c5fd2" stop-opacity="1"/>
     </linearGradient>
    </defs>
    <path id="path-2" d="M1325.905 391.429 C1267.915 391.429 1220.905 438.439 1220.905 496.429 L1220.905 1555 C1220.905 1612.99 1267.915 1660 1325.905 1660 L1574 1660 C1631.989 1660 1679 1612.99 1679 1555 L1679 496.429 C1679 438.439 1631.989 391.429 1574 391.429 Z" fill-opacity="1" fill="url(#linear-gradient-1)" stroke="none"/>
   </g>
   <defs>
    <linearGradient id="linear-gradient-2" gradientUnits="userSpaceOnUse" x1="620.382" y1="929.036" x2="3851.057" y2="3923.126">
     <stop offset="0" stop-color="#52a6f3" stop-opacity="1"/>
     <stop offset="1" stop-color="#4825a7" stop-opacity="1"/>
    </linearGradient>
   </defs>
   <path id="path-3" d="M937.129 4610 C633.375 4610 387.129 4363.754 387.129 4060 L387.129 1282.703 C387.129 978.95 633.375 732.703 937.129 732.703 L1089.726 732.703 1089.726 963.404 C1089.726 1075.517 1180.613 1166.404 1292.726 1166.404 L1606.672 1166.404 C1718.784 1166.404 1809.672 1075.517 1809.672 963.404 L1809.672 732.703 3188.845 732.703 3188.845 963.404 C3188.845 1075.517 3279.733 1166.404 3391.845 1166.404 L3705.791 1166.404 C3817.903 1166.404 3908.791 1075.517 3908.791 963.404 L3908.791 732.703 4061.388 732.703 C4365.142 732.703 4611.388 978.95 4611.388 1282.703 L4611.388 4060 C4611.388 4363.754 4365.142 4610 4061.388 4610 L937.129 4610 Z" fill-opacity="1" fill="url(#linear-gradient-2)" stroke="none"/>
   <defs>
    <linearGradient id="linear-gradient-3" gradientUnits="userSpaceOnUse" x1="605.555" y1="4360.847" x2="4619.68" y2="1019.969">
     <stop offset="0" stop-color="#2d42c7" stop-opacity="0"/>
     <stop offset="1" stop-color="#8c42cb" stop-opacity="1"/>
    </linearGradient>
   </defs>
   <path id="path-4" d="M937.129 4610 C633.375 4610 387.129 4363.754 387.129 4060 L387.129 1282.703 C387.129 978.95 633.375 732.703 937.129 732.703 L1089.726 732.703 1089.726 963.404 C1089.726 1075.517 1180.613 1166.404 1292.726 1166.404 L1606.672 1166.404 C1718.784 1166.404 1809.672 1075.517 1809.672 963.404 L1809.672 732.703 3188.845 732.703 3188.845 963.404 C3188.845 1075.517 3279.733 1166.404 3391.845 1166.404 L3705.791 1166.404 C3817.903 1166.404 3908.791 1075.517 3908.791 963.404 L3908.791 732.703 4061.388 732.703 C4365.142 732.703 4611.388 978.95 4611.388 1282.703 L4611.388 4060 C4611.388 4363.754 4365.142 4610 4061.388 4610 L937.129 4610 Z" fill-opacity="1" fill="url(#linear-gradient-3)" stroke="none"/>
  </g>
  <g id="new-group-3">
   <path id="path-5" d="M803.752 4025 C1193.41 3783.73 1882.368 3647.42 2659.335 3692.273 3228.255 3725.115 3741.029 3849.127 4118 4025 L803.752 4025 Z" fill="#ffffff" fill-opacity="1" stroke="none"/>
   <path id="path-6" d="M1763.908 3836.681 C1767.201 3722.661 1778.504 3613.797 1796.981 3508.49 L1882.064 3528.132 1803.59 3472.556 C1822.445 3374.541 1847.527 3279.494 1878.153 3186.098 L1958.929 3210.794 1891.118 3147.612 C1928.885 3038.367 1974.174 2931.149 2025.874 2823.822 L2091.316 2851.6 2041.444 2791.886 C2104.434 2664.182 2176.334 2536.021 2255.274 2403.808 L2226.081 2393.929 C2044.632 2375.131 1816.761 2644.159 1816.761 2644.159 1816.761 2644.159 1771.996 2238.322 2222.299 2217.076 2171.304 2161.25 1889.488 2202.967 1255.181 2350.749 1740.124 1657.024 2176.405 2070.071 2302.885 2132.754 2307.492 1945.81 1716.349 1762.733 1489.731 1755.482 1838.744 1543.596 2426.349 1680.478 2467.284 2036.954 2494.988 1959.028 2925.599 1756.666 3276.333 1962.728 3311.666 1979.394 3500.882 2143.209 3510.092 2270.101 3431.644 2223.373 3342.425 2187.127 3251.698 2160.76 L3191.043 1988.205 3151.455 2135.957 C3129.978 2131.231 3113.808 2127.927 3095.258 2125.013 L3031.901 1945.565 2987.685 2110.584 C2954.315 2107.812 2916.443 2104.863 2883.362 2105.253 L2826.535 1948.121 2783.348 2109.303 C2690.246 2117.263 2631.158 2142.564 2598.885 2178.133 3281.138 2135.746 3409.374 2586.569 3380.749 2748.566 3357.825 2728.029 3306.446 2690.61 3239.411 2647.969 L3241.251 2445.886 3153.761 2594.169 C3133.281 2581.483 3111.481 2569.474 3088.878 2556.219 L3090.912 2344.933 2996.896 2504.837 C2967.125 2488.633 2938.155 2473.673 2908.93 2459.673 L2911.053 2460.24 2874.223 2287.899 2811.708 2415.111 C2734.162 2381.994 2669.699 2363.693 2635.881 2371.084 2796.196 2562.115 2816.669 2774.292 2691.731 2973.21 2680.628 2874.603 2567.68 2549.215 2485.854 2476.903 L2458.783 2467.593 C2404.279 2571.219 2353.727 2673.049 2308.223 2774.101 L2249.591 2780.732 2296.402 2800.602 C2252.396 2900.154 2213.392 2999.037 2180.452 3098.225 L2104.49 3108.104 2169.912 3130.63 C2140.684 3222.421 2116.733 3314.568 2098.898 3407.84 L2014.754 3423.781 2092.449 3443.152 C2068.114 3583.01 2057.669 3725.605 2063.902 3873.515 L1763.908 3836.681 Z" fill="#ffffff" fill-opacity="1" stroke="none"/>
  </g>
 </g>
</svg>
